<?xml version="1.0" encoding="UTF-8"?>
<svg id="_Слой_2" data-name="Слой 2" xmlns="http://www.w3.org/2000/svg" viewBox="0 0 96.06 71.46">
  <defs>
    <style>
      .cls-1 {
        fill: #fff;
      }
    </style>
  </defs>
  <g id="_Слой_1-2" data-name="Слой 1">
    <path class="cls-1" d="M96.06,0c-7.63,15.49-19.54,27.11-33.36,36.9-13.85,9.81-29.24,16.45-46.94,21.53,8.98,2.79,17.68,3.8,21.52,12.54-1.87,1.23-2.21-.09-2.8-.92-2.31-3.27-5.54-5.2-9.26-6.49-6.51-2.25-13.2-2.78-20.01-2.39-1.54.09-3.19.91-5.21-.82,10.91-6.99,20.17-14.99,18.87-29.85,4.66,5.81,1.72,13.8-9.87,27.11,18.51-4.12,34.7-10.96,49.74-20.67,15.03-9.7,26.84-22.59,37.31-36.93Z"/>
  </g>
</svg>