<?xml version="1.0" encoding="UTF-8"?>
<svg id="_Слой_2" data-name="Слой 2" xmlns="http://www.w3.org/2000/svg" viewBox="0 0 497.41 143.17">
  <defs>
    <style>
      .cls-1, .cls-2 {
        fill: #fff;
      }

      .cls-2 {
        font-family: 'Hello_January_script-Script', Hello_January_script;
        font-size: 109.18px;
      }
    </style>
  </defs>
  <g id="_Слой_1-2" data-name="Слой 1">
    <g>
      <text class="cls-2" transform="translate(0 92.8)"><tspan x="0" y="0">Атмосфера</tspan></text>
      <path class="cls-1" d="M401.76,81.87c17.27.32,32.84,6.16,47.58,14.5,14.77,8.36,27.32,19.47,39.44,33.33-1.3-9.31-4.08-17.61,2.2-24.8,1.9,1.17.86,2.04.36,2.92-1.98,3.48-2.36,7.22-1.94,11.14.73,6.84,3.09,13.12,6.34,19.13.73,1.36,2.18,2.5,1.47,5.06-10.97-6.9-22.14-11.89-35.04-4.39,3.28-6.68,11.76-7.42,28.74-2.6-11.6-15.01-24.67-26.75-39.86-36.24-15.17-9.48-31.86-14.69-49.29-18.07Z"/>
    </g>
  </g>
</svg>