<?xml version="1.0" encoding="UTF-8"?>
<svg id="_Слой_2" data-name="Слой 2" xmlns="http://www.w3.org/2000/svg" viewBox="0 0 958.52 268.97">
  <defs>
    <style>
      .cls-1 {
        letter-spacing: -.02em;
      }

      .cls-2 {
        letter-spacing: -.02em;
      }

      .cls-3 {
        font-family: Daikon-Regular, Daikon;
        font-size: 20px;
      }

      .cls-4 {
        letter-spacing: 0em;
      }

      .cls-5 {
        letter-spacing: -.02em;
      }

      .cls-6 {
        font-family: 'Hello_January_script-Script', Hello_January_script;
        font-size: 109.18px;
      }

      .cls-7 {
        letter-spacing: -.02em;
      }

      .cls-8 {
        letter-spacing: -.02em;
      }

      .cls-9 {
        letter-spacing: 0em;
      }

      .cls-10 {
        letter-spacing: 0em;
      }

      .cls-11 {
        letter-spacing: -.01em;
      }

      .cls-12 {
        letter-spacing: -.01em;
      }

      .cls-13 {
        letter-spacing: -.01em;
      }
    </style>
  </defs>
  <g id="_Слой_1-2" data-name="Слой 1">
    <text class="cls-3" transform="translate(135.89 201.98)"><tspan class="cls-10" x="0" y="0">Д</tspan><tspan x="14.62" y="0">ля нашей лесной св</tspan><tspan class="cls-12" x="214.56" y="0">а</tspan><tspan x="225.98" y="0">дьбы просим вас </tspan><tspan class="cls-9" x="400.6" y="0">о</tspan><tspan x="412.4" y="0">д</tspan><tspan class="cls-12" x="424.58" y="0">е</tspan><tspan x="436.06" y="0">т</tspan><tspan class="cls-13" x="446.18" y="0">ь</tspan><tspan x="456.71" y="0">ся в </tspan><tspan class="cls-5" x="500.97" y="0">у</tspan><tspan x="511.52" y="0">добную </tspan><tspan class="cls-12" x="593.2" y="0">о</tspan><tspan x="605" y="0">д</tspan><tspan class="cls-7" x="617.17" y="0">е</tspan><tspan class="cls-10" x="628.46" y="0">ж</tspan><tspan class="cls-8" x="644.47" y="0">д</tspan><tspan x="656.25" y="0">у и о</tspan><tspan class="cls-9" x="703.13" y="0">б</tspan><tspan x="715.15" y="0">увь. </tspan><tspan class="cls-10" x="0" y="27">Д</tspan><tspan x="14.62" y="27">ля по</tspan><tspan class="cls-7" x="68.64" y="27">с</tspan><tspan x="78.68" y="27">ещения бани нужны куп</tspan><tspan class="cls-10" x="322.88" y="27">а</tspan><tspan x="334.38" y="27">льники и плавки. </tspan><tspan x="0" y="54">Не забывай</tspan><tspan class="cls-1" x="117" y="54">т</tspan><tspan x="126.8" y="54">е про </tspan><tspan class="cls-2" x="186.84" y="54">г</tspan><tspan class="cls-11" x="195.66" y="54">о</tspan><tspan x="207.36" y="54">ловные </tspan><tspan class="cls-9" x="287.92" y="54">у</tspan><tspan class="cls-4" x="298.76" y="54">боры и </tspan><tspan class="cls-1" x="374.28" y="54">т</tspan><tspan x="384.08" y="54">еплую </tspan><tspan class="cls-12" x="453.74" y="54">о</tspan><tspan x="465.54" y="54">д</tspan><tspan class="cls-7" x="477.72" y="54">е</tspan><tspan class="cls-10" x="489" y="54">ж</tspan><tspan class="cls-7" x="505.02" y="54">д</tspan><tspan x="516.8" y="54">у!</tspan></text>
    <g>
      <text class="cls-6" transform="translate(91.51 126.14) rotate(-4)"><tspan x="0" y="0">Dress Code</tspan></text>
      <path d="M94.81,201.26c-2.93,3.5-5.45,5.52-6.94,8.4-.93,1.8-1.52,3.64-1.22,5.66.15,1.01.62,1.91,1.81,1.97.79.04,1.53-.45,1.61-1.19.74-7.75,6.95-10.92,12.37-14.61,3.64-2.48,7.63-4.44,11.47-6.62.88-.5,1.84-1.14,1.8-2.14-.06-1.45-1.32-1.98-2.58-2.13-2.93-.35-5.89-.49-8.8-.91-6.69-.96-13.13-2.46-17.15-8.73-.71-1.11-1.77-1.9-2.98-.83-.8.71-.47,1.85-.06,2.76,1.99,4.34,5.75,6.61,9.95,8.29,2.24.9,4.57,1.57,8.33,2.84-3.86,1.3-6.44,2.31-9.09,3.04-17.67,4.92-35.63,7.51-54,6.4-7.16-.43-14.17-1.73-20.7-4.91-15.58-7.59-19.11-21.19-9.16-35.31,6.58-9.33,15.56-15.81,25.83-20.28,21.08-9.17,42.73-16.41,66.09-16.75,1.3-.02,2.62.01,2.73-1.6.11-1.59-1.3-1.98-2.49-2.05-2.44-.16-4.93-.39-7.35-.1-21.66,2.63-42.47,8.38-62.2,17.76-11.8,5.61-21.79,13.39-28.22,25.08-7.1,12.92-4.28,25.08,7.75,33.62,5.96,4.23,12.74,6.35,19.86,7.48,17.81,2.81,35.32.45,52.76-3.13,3.07-.63,6.16-1.16,10.6-1.99Z"/>
    </g>
  </g>
</svg>