<?xml version="1.0" encoding="UTF-8"?>
<svg id="_Слой_2" data-name="Слой 2" xmlns="http://www.w3.org/2000/svg" viewBox="0 0 279.46 200.6">
  <defs>
    <style>
      .cls-1 {
        font-family: Gogol, Gogol;
        font-size: 29.44px;
      }
    </style>
  </defs>
  <g id="_Слой_1-2" data-name="Слой 1">
    <g>
      <path d="M279.03,19.47c-.63-.92-1.68-.45-2.36-.2-4.42,1.61-8.8,3.34-13.18,5.06-.58.23-1.7.13-1.31,1.21.33.92,1.14.71,1.92.4,2.03-.81,4.08-1.55,6.12-2.32.48-.05.98-.93,1.45-.05,0,0-.01.01-.02.02-.31.26-.61.52-.92.78-.76.94-1.85,1.3-2.94,1.63-1.87.58-4.06.73-5.56,1.82-5.97,4.36-12.96,6.78-19.19,10.61-3.66,2.25-7.46,4.19-11.44,5.8-.88.36-1.56.79-2.37-.39-4.69-6.87-9.92-13.34-14.98-19.94-2.6-3.39-5.49-6.49-8.58-9.42-4.39-4.16-9.59-7.25-14.55-10.61-3.3-2.23-6.75-4.46-11.22-3.71-5.16.87-10.44,1-15.63,1.3-5.69.33-11.1,1.08-16.28,3.41-2.82,1.27-5.65,2.53-8.66,3.34-4.76,1.29-8.76,3.92-12.25,7.33-3.68,3.59-7.87,6.76-10.62,11.19-2.82,4.56-7.68,7.58-9.68,12.69-1.67,4.25-3.75,8.38-4.37,13.39-.62-.61-.91-.83-1.11-1.1-3.51-4.79-7.19-9.36-13.45-10.71-.18-.04-.38-.1-.53-.2-7.53-5.22-16.66-5.5-25.04-8.07-3.92.17-7.79-.73-11.75-.49-1.37.08-2.54,1.24-3.94.59-1.89,1.02-4.01,1.35-6.04,1.96-2.46.99-4.99,1.87-6.88,3.87-1.08.96-2.07,2.17-3.79,1.36-.31,1.19-.95,2.1-2.12,2.58-1.11.77-2.21,1.53-3.32,2.3-6.72,4.27-11.45,10.4-15.84,16.87-1.11,1.64-1.41,3.51-2.06,5.28C3.02,76.79,1.75,87.01.11,97.14c-.44,2.7.49,4.99,2.22,7.1,4.31,5.26,8.26,10.78,11.25,16.93,3.99,8.21,10.64,14.1,17.34,19.96,2.64,2.31,5.31,4.58,7.53,7.32,1.31,1.19,2.62,2.37,3.93,3.56,4.48,2.94,9.14,5.59,14.25,8.21-5.14,3.53-10.71,5.24-16.12,7.31-4.76,2.2-9.66,4.09-14.22,6.72-1.73,1-3.43.4-4.94-.75-.18-.07-.35-.15-.53-.21-.89-.26-1.99-1.62-2.65-.16-.7,1.56,1.03,1.37,1.88,1.73.75.32,1.7.3,2.05,1.39-3.13,2.49-5.38-.36-7.93-1.31-.75.04-1.81-.75-2.18.37-.41,1.24.91,1.08,1.57,1.41.49.25.98.5,1.47.75.7.19,1.45.31,1.9,1.26-.72.76-1.64.84-2.64.71-.97-.31-1.95-.62-2.92-.93-1.66.06-2.65-1.56-4.25-1.66-.39.5-.43,1.05-.21,1.63.75.38,1.53.72,2.25,1.15,1.9,1.15.31,1.2-.49,1.5-.22.82-.71,1.75.81,1.77,1.39-.95,2.88-1.16,4.63-.81-1.14,2.12-2.4,3.86-3.99,5.37-.43.41-.66,1.06-.2,1.53.5.52,1.02.06,1.5-.25,1.48-.94,2.08-2.65,3.33-3.79h.02c.65-2.21,2.38-3.5,3.9-5,.35,2.02-.4,3.55-1.42,5-.06.69-.6,1.52.55,1.85.92.26,1.14-.41,1.36-1.04.56-1.6,1.18-3.19,1.62-4.82.39-1.46.94-2.63,2.7-2.98-.2,2.04-.43,3.95-1.32,5.74-.29.58-.34,1.45.43,1.73.85.31,1.09-.51,1.3-1.12.58-1.69,1.47-3.37,1.62-5.11.18-2.26,1.32-3.45,3.2-4.17,3.43-1.3,6.37-3.63,9.93-4.63,5.57-2.64,11.71-4.09,16.86-7.51,2.69-1.79,4.73-1.5,6.77.33,4,3.6,8.86,5.36,13.8,7.04,2.3.78,4.4,1.93,6.51,3.27,4.37,2.77,9.26,4.62,14.29,5.99,5.07,1.38,10.32,1.73,15.46,2.66,1.87.34,3.81.59,5.53,1.32,5.25,2.25,10.47,4.62,16.09,5.7,10.7,2.05,20.87,5.56,30.63,10.37,1,.5,2.14.83,3.25.96.76.09,2.04.18,2.19-.78.21-1.35-1.06-.97-1.84-.97-1.95,0-2.47-.59-1.31-2.41,3.44-5.36,8.38-9.18,13.25-13.05,2.63-2.08,5.34-4.06,7.38-6.76,2.15-2.85,4.2-5.79,6.41-8.61,6.33-8.05,14.29-14.71,20.02-23.23,3.87-5.76,8.7-10.96,11.04-17.68,1.69-4.84,3-9.86,4.85-14.58,4.73-12.07,7.33-24.54,8.78-37.33.43-3.81.15-7.73-1.04-11.26-1.71-5.07-2.83-10.43-5.86-14.99-1.14-1.72-.9-2.6,1.22-3.43,7.75-3.04,14.95-7.27,22.05-11.5,6.04-3.6,12.91-5.35,18.7-9.34.45-.31,1.26-.68,1.87-.24.76.55.07,1.19-.09,1.77-.64,2.39-1.33,4.76-1.95,7.15-.16.63-.28,1.44.67,1.55.73.09.86-.61,1-1.15,1.09-4.03,2.04-8.11,4.02-11.83.45-.85.33-1.71-.16-2.43ZM236.91,71.24c.28,4.05-.55,7.97-1.15,11.9-.6,4-1.41,7.97-2.23,11.93.18.43.27.92.21,1.48-.3,2.76-1.4,5.29-2.78,7.68-2.42,7.48-4.55,15.09-7.63,22.3-3.93,9.21-10.11,17.17-16.76,24.63-6.76,7.6-13.86,14.88-19.6,23.34-1.84,2.71-4.39,4.72-6.95,6.71-5.41,4.21-10.76,8.48-14.7,14.21-.65.94-1.1,1.24-2.47.81-8.33-2.6-16.24-6.55-24.93-7.95-4.36-.7-8.65-1.83-12.55-3.69-6.85-3.27-14.11-4.43-21.46-5.46-7.26-1.02-13.85-3.88-20.25-7.28-1.68-.89-3.3-1.95-5.09-2.54-11.58-3.82-21.21-11.36-31.96-16.74-1.5-.75-2.95-1.73-4.03-3.11-1.02-.64-1.9-1.42-2.54-2.45-.6-.6-1.2-1.2-1.8-1.8-.34-.31-.69-.62-1.03-.93-7.21-6.48-15.12-12.25-20.34-20.69-.79-1.28-1.61-2.54-2.04-4-2.83-5.89-6.63-11.16-10.81-16.14-1.78-2.12-2.55-4.36-2.12-7.07,1.65-10.5,2.84-21.19,7.09-30.99,2.73-6.28,6.73-12.06,12.66-16.06.56-.44,1.11-.87,1.67-1.31,1.27-1.15,2.65-2.13,4.21-2.83.84-1.28,2.26-1.74,3.49-2.47,1.52-1.01,3.03-2.01,4.55-3.02.72-.87,1.33-1.87,2.6-2.04,1.59-.72,3.23-1.26,4.97-1.45,5.1-2.29,10.44-2.63,15.91-1.93.72.09,1.16.55,1.68.94,2.59-1.22,5.23-.76,7.45.55,1.72,1.02,3.38,1.64,5.3,1.76,3.96.24,7.64,1.26,10.99,3.52,2.2,1.49,4.6,2.69,7.23,3.31,1.15.27,2.19.87,2.84,1.81,2.51,3.63,6.48,6.27,7.37,10.99.17.88.75,1.01,1.49.78.66-.2,1.36-.43,1.02-1.34-1.45-3.96.53-7.45,1.74-10.92,3.37-9.69,10.6-16.71,17.41-23.94,2.66-2.82,5.17-5.83,8.41-8.08,1.18-.81,2.28-1.8,3.64-2.19,5.87-1.68,11.31-4.47,17.01-6.56,3.06-1.12,6.24-1.46,9.5-1.61,6.52-.31,13.04-.86,19.54-1.42,2.27-.2,4.06.75,5.86,1.82,11.05,6.57,21.01,14.33,28.42,25.07,3.5,5.08,7.39,9.91,11.17,14.8,1.23,1.59.89,2.35-.95,2.95-2.18.7-4.29,1.64-5.74,3.53-.42.55-1.07,1.41-.31,2.04.93.77,1.28-.34,1.69-.88,1.6-2.12,4.11-2.64,6.33-3.65,1.13-.51,1.26.46,1.57,1.08,3.56,7.16,6.64,14.46,7.2,22.58ZM271.66,23.56c-.13-.23-.06-.39.22-.47.07-.02.17.06.25.09-.16.13-.31.25-.47.38ZM275.92,24.24c-.17.06-.49-.15-.3-.46.13-.21.33-.37.51-.55.11.12.22.25.35.39-.21.25-.34.55-.55.62Z"/>
      <text class="cls-1" transform="translate(26.02 123.63) rotate(-21.63)"><tspan x="0" y="0">С любовью, ваши</tspan><tspan x="0" y="28" xml:space="preserve">   Настя </tspan><tspan x="0" y="56" xml:space="preserve">         и Олег</tspan></text>
    </g>
  </g>
</svg>