<?xml version="1.0" encoding="UTF-8"?>
<svg id="_Слой_2" data-name="Слой 2" xmlns="http://www.w3.org/2000/svg" viewBox="0 0 332.53 195.98">
  <defs>
    <style>
      .cls-1 {
        font-family: 'Hello_January_script-Script', Hello_January_script;
        font-size: 170.99px;
      }
    </style>
  </defs>
  <g id="_Слой_1-2" data-name="Слой 1">
    <text class="cls-1" transform="translate(29.33 153.45) rotate(-11.64) scale(.89 1)"><tspan x="0" y="0">=</tspan></text>
    <g>
      <path d="M137.23,114.83c-10.3,6.72-21.81,13.07-33.42,17.16-.12.03-.18.05-.29.08-2.06.59-3.23-.13-3.82-1.03-1.41-1.55-1.46-4.92-.13-9.93-5.64,5.89-14.53,15.7-17.42,17.73-.82.45-1.73,1.12-2.61,1.41-1.16.39-2.29.42-3.26-.52-1.63-1.43-1.5-4.74.89-10.95.23-.8,1.2-1.12,1.88-.8.59.27,1.08,1.27.85,2.06-1.93,5.14-1.94,6.96-1.77,7.44.15-.05.88-.3,2.38-1.16,7.65-6.72,14.38-14.57,21.41-21.92.21-.41.82-.78,1.28-.71.33.05.7.16.94.45.53.74.56,1.44.09,2.1-2.61,7.11-3.27,11.94-2.5,12.96.05.16.49.04.94-.09.12-.03.18-.05.3-.08,11.34-4.02,22.71-10.18,32.73-16.85.57-.3,1.4-.08,1.89.64.41.6.17,1.54-.37,2Z"/>
      <path d="M185.89,106.6c-5.14,2.7-9,3.94-12.06,4.39-4.12.61-6.6-.2-8.22-1.5-.18-.14-.21-.31-.36-.29-6.68,7.32-14.95,11.84-19,12.66-2.25.45-3.12-.76-3.38-1.23-.8-1.58-.29-3.61,1.67-6.45-2.74.55-5.69.83-7.09.95-2.94,4.06-4.38,6.1-7.2,10.2-.22.4-.52.47-.82.54-.45.1-.78,0-1.16-.25-.6-.56-.8-1.39-.32-2.03,2.95-4.35,4.46-6.52,7.55-10.83-.04-.17.12-.2.23-.4,2.01-2.82,3.03-4.22,5.1-7.02.52-.63,1.38-.8,2.04-.24.59.5.61,1.45.13,2.24-1.3,1.8-1.95,2.7-3.23,4.5,3.28-.34,6.98-.89,8.04-1.97.15-.03.12-.2.27-.23,7.87-8.66,14.55-8.68,16.82-6.45.76.74,1.25,1.88,1.23,2.75.21.31.81,1.08,1.83,1.61,1.88.92,6.46,1.69,16.62-3.73.75-.27,1.51.11,1.83.81.27.6.21,1.7-.54,1.96ZM163.05,105.4c-1.33-1.34-7.19-.56-14,7.54-2.92,3.7-3.66,5.43-3.67,6.13.12-.02.18-.04.3-.06,3.62-.73,11.19-5.13,17.06-11.65.09-.22.13-.33.22-.56.63-.97.27-1.26.09-1.4Z"/>
      <path d="M245.09,69.78c-.66.4-1.64.03-1.98-.65-8.79-4.08-23.77.33-32.85,1.54-.13.08-.19.12-.32.2.37.52.55.78.92,1.3,8.48,10.55,1.42,23.64-7.99,31.04q.02.17-.12.35c-7.26,7.54-16.39,11.74-20.63,12.31-2.27.3-3.06-.96-3.29-1.45-.91-2.12.53-4.93,4.82-9.44,8.84-9.4,16.02-9.03,18.31-6.5.34.31.53.64.72.96,7.23-6.88,12.71-16.69,5.85-25.55-1.28-1.62-2.21-2.91-1.66-4.33.55-1.42,2.35-1.73,2.84-1.77,9.96-1.41,27.26-7.27,35.85-.08.5.68.16,1.69-.46,2.06ZM199.95,100.57c-1.24-1.43-7.13-1.04-14.46,6.6-3.16,3.5-4,5.17-4.06,5.87.12-.02.18-.02.3-.04,3.65-.49,11.34-4.36,17.78-10.49.1-.22.16-.32.26-.54.69-.93.35-1.24.18-1.39Z"/>
      <path d="M256.94,102.37c-5.45,2.03-9.59,2.77-12.68,2.82-4.02.07-6.36-1.05-7.81-2.54-.16-.17-.32-.16-.32-.33-7.56,6.41-16.33,9.84-20.6,10.14-2.13.15-2.85-1.16-3.04-1.66-.78-2.17.83-4.89,5.39-9.12,9.41-8.84,16.39-8.02,18.68-5.36.65.83.84,1.68.86,2.37,0,.14,0,.21.01.34,0,.17.2,1.19,1.46,2.01,1.74,1.14,6.34,2.49,17.13-1.58.78-.17,1.49.31,1.71,1.03.19.63-.17,1.71-.79,1.88ZM234.43,98.28c-1.31-1.49-7.06-1.48-14.84,5.69-3.52,3.3-4.31,4.92-4.57,5.62.18-.01.28-.02.46-.03,3.68-.26,11.59-3.65,18.4-9.38,0-.17,1.21-1.24.56-1.9Z"/>
      <path d="M324.78,59.98c-6.83,17.28-41.72,26.13-57.51,32.45-.39.4-.58.6-.97,1.01-1.13,1-2.57,2.34-4.32,4.2,9.65-6.37,17.25-6.7,19.98-4.17,1.52,1.27,1.6,3.47.52,5.33-1.51,2.6-4.62,5.08-7.78,7.02,6.21-.63,14.6-1.79,26.45-4.4.79-.11,1.55.3,1.63,1.17.08.87-.3,1.69-1.09,1.79-11.25,2.25-24.43,2.97-33.87,4.99-2.19.47-4.63,1.61-6.32,1.76-.55.06-.83.09-1.38.15-.92,0-1.68-.19-2.14-.7-.3-.34-.46-.69-.45-1.2,0-.34.16-.68.47-1.02,1.55-1.7,3.87-1.86,8.03-1.94.5-.06.74-.09,1.24-.14,4.83-1.94,10.56-5.3,12.78-9.14.52-1,.21-1.19.06-1.37-11.47-2.88-21.43,7.97-29.01,15.15-.61.52-1.37.52-1.99.02-.15-.17-.31-.51-.31-.68,0-.14,0-.21,0-.34,0-.51.14-.86.3-1.03,7.12-10.16,12.46-15.21,15.36-17.89.45-.4.68-.6,1.13-1,13.3-11.93,37.94-36.63,58.04-33.25.95.63,1.49,1.89,1.16,3.23ZM321.98,59.14c-.26-.1-.39-.15-.65-.25-17.68,2.2-34.59,16.97-47.68,27.55,14.51-5.87,39.59-12.72,48.3-26.97.02-.14.02-.2.04-.34Z"/>
      <path d="M295.45,112.46c-.76-.06-1.48-.79-1.56-1.83-.42-2.77,3.75-7.31,11.07-11.45,1.16-.58,2.01-1.19,2.84-1.63.74-.48,1.12-.72,1.86-1.19.68-.45,1.58-.1,1.86.53.31.69.14,1.73-.52,2.01-.75.47-1.12.71-1.86,1.19-.07.06-.1.09-.17.15,2.2,1.76,10.19,6.83,21.96,4.31.82-.23,1.35.41,1.57,1.25.18.7-.37,1.5-1.19,1.73-8.34,2.12-17.62-.98-21.49-3.09-.08.13-.11.19-.19.32-1.46,3.64-7.62,8.36-13.12,7.94-.42-.1-.63-.15-1.06-.25ZM307.08,103.49c.38-.65.24-.84.08-.85-.28-.37-.42-.55-.54-.91-.13.06-.2.08-.33.14-6.31,3.53-8.68,6.46-9.4,7.78,4.16.15,9.13-3.34,10.19-6.16Z"/>
    </g>
  </g>
</svg>