<?xml version="1.0" encoding="UTF-8"?>
<svg id="_Слой_2" data-name="Слой 2" xmlns="http://www.w3.org/2000/svg" viewBox="0 0 182.86 125.9">
  <g id="_Слой_1-2" data-name="Слой 1">
    <g>
      <path d="M46.67,125.87c-.06,0-.08,0-.14,0-11.62-5.32-16.16-21.87-17.19-33.31-2.1-23.44,1.8-64.5,18.01-77.21.45-.35,1.29-.22,1.57.32.19.36-.11.97-.67,1.38-16.82,22.67-22.51,62.27-14.16,88.87,3.15,10.38,7.79,16.26,12.81,18.17.49.09,3.42.08,4.77-2.67,12.55-25.58,21.12-61.98,28.68-92.88,1.73-7.53,3.82-20.01,1.86-22.2-1.23-1.38-2.04-2.05-4.76-.68-24.97,12.59-42.57,46.84-39.15,75.36.13.54-.4,1.13-.91,1.23-.47.1-1.1-.29-1.09-.82-3.14-29.68,13.83-63.95,40.23-77.37,4.68-2.38,6.4-.47,7.66,1.01,2.88,3.16-.18,17.59-1.61,23.64-7.81,31.21-18.28,63.57-29.4,93.8-.35.73-.83,1.17-1.31,1.61-2.32,2.16-5.08,1.76-5.22,1.76Z"/>
      <path d="M117.69,54.58c-5.91,4.12-17.39,11.2-21.79,13.05-.08.03-.11.05-.19.08-1.34.57-2.15.26-2.58-.21-1.02-.77-1.24-2.79-.59-5.93-3.49,4.13-8.76,11.05-10.51,12.64-.51.37-1.06.89-1.61,1.18-.73.38-1.47.55-2.17.12-1.17-.64-1.34-2.64-.17-6.67.1-.51.71-.83,1.19-.73.4.09.79.62.69,1.13-.94,3.32-.81,4.41-.67,4.68.09-.05.55-.29,1.48-1,1.96-1.69,9.68-11.71,13.03-15.61.12-.27.51-.55.83-.56.22,0,.48.02.66.17.39.39.44.81.15,1.25-1.45,4.52-1.63,7.48-1.06,8.01.04.09.33-.03.62-.15.08-.03.12-.05.19-.08,4.15-1.75,15.67-8.75,21.41-12.84.38-.22.95-.14,1.3.26.29.33.15.91-.21,1.22Z"/>
      <path d="M115.55,58.17c-.38-.52-.81-1.46-.14-3.03.59-1.38,2.11-3.06,3.96-4.51.07-.06.11-.09.18-.15,2.5-1.94,5.55-3.48,7.07-3.98.81-.27,3.46-1.09,4.18.21.34.55.43,1.6-1.23,2.97-2.1,1.73-6.56,2.92-9.31,2.61-1.47,1.13-2.65,2.42-3.11,3.51-.22.38-.31.96-.09,1.19.38.41,1.95.61,3.46.28,2.53-.56,11.68-4.32,24-10.26.52-.18,1.06,0,1.26.43.22.45.04,1.02-.37,1.18-11.92,5.74-20.78,9.54-24,10.3-2.64.62-4.85.44-5.86-.73ZM128.27,48.3c.22-.22.33-.32.55-.54-.64.14-.95.22-1.59.36-.93.32-2.63,1.14-4.36,2.21,2.04-.31,4.29-1.06,5.4-2.04Z"/>
      <path d="M153.83,52.75c-.79-.53-1.32-1.29-1.5-2.08-.23-.98.18-2.16,1.02-3.38,2.09-2.67,2.15-3.48,2.02-3.67-.44-.06-.76.07-1.92.5-.25.11-.38.16-.63.27-1.03.56-1.55.84-2.57,1.42-1.51,1-3.32,2.06-5.17,2.74-.5.28-1.07.06-1.26-.43-.18-.48.06-1.04.47-1.2,1.75-.67,3.47-1.72,4.9-2.62,1.03-.54,1.95-1.16,2.8-1.45.25-.11.38-.16.63-.27,1.26-.65,2.14-.95,3.24-.73,1,.19,1.29.8,1.54,1.19.44,1.28-.63,3-2.44,5.32-.67.78-.86,1.46-.77,1.91.08.36.28.68.73.94,1.54.56,13.68-2.35,26.7-6.46.55-.09,1.04.22,1.18.64.12.38-.03.91-.58,1.1-9.64,2.96-20.56,6.01-25.66,6.49-1.35.13-2.31.03-2.76-.23Z"/>
    </g>
  </g>
</svg>