<?xml version="1.0" encoding="UTF-8"?>
<svg id="_Слой_2" data-name="Слой 2" xmlns="http://www.w3.org/2000/svg" viewBox="0 0 548.8 160.54">
  <defs>
    <style>
      .cls-1 {
        font-family: 'Hello_January_script-Script', Hello_January_script;
        font-size: 109.18px;
      }

      .cls-2 {
        letter-spacing: .15em;
      }
    </style>
  </defs>
  <g id="_Слой_1-2" data-name="Слой 1">
    <g>
      <text class="cls-1" transform="translate(6.47 120.4) rotate(-4)"><tspan class="cls-2" x="0" y="0">П</tspan><tspan x="105.69" y="0">рограмма</tspan></text>
      <path d="M467.21,147.78c4,2.19,7.09,3.15,9.53,5.29,1.52,1.34,2.74,2.83,3.2,4.82.23.99.12,2.01-.97,2.5-.73.33-1.59.14-1.93-.52-3.52-6.94-10.46-7.63-16.85-9.08-4.29-.98-8.73-1.35-13.1-1.97-1-.14-2.13-.39-2.46-1.34-.48-1.37.5-2.33,1.63-2.93,2.6-1.39,5.3-2.61,7.86-4.06,5.87-3.34,11.33-7.08,12.78-14.39.26-1.29.95-2.42,2.47-1.86,1,.37,1.11,1.55,1.06,2.54-.27,4.76-2.94,8.25-6.23,11.35-1.76,1.65-3.68,3.13-6.71,5.68,4.07-.2,6.84-.2,9.57-.48,18.24-1.87,35.91-6.01,52.61-13.76,6.51-3.02,12.56-6.79,17.48-12.13,11.73-12.75,10.06-26.71-4.36-36.21-9.53-6.28-20.26-9.04-31.45-9.45-22.98-.84-45.78.33-67.64,8.54-1.22.46-2.43.97-3.12-.49-.68-1.44.49-2.31,1.57-2.82,2.22-1.04,4.45-2.17,6.8-2.78,21.13-5.46,42.6-7.7,64.39-6.17,13.03.92,25.18,4.51,35.43,13.05,11.33,9.44,13.14,21.79,5.06,34.12-4.01,6.11-9.54,10.56-15.76,14.21-15.55,9.12-32.72,13.32-50.26,16.34-3.09.53-6.16,1.17-10.6,2.02Z"/>
    </g>
  </g>
</svg>