<?xml version="1.0" encoding="UTF-8"?>
<svg id="_Слой_2" data-name="Слой 2" xmlns="http://www.w3.org/2000/svg" viewBox="0 0 212.13 100.84">
  <g id="_Слой_1-2" data-name="Слой 1">
    <g>
      <path d="M104.44,10.75s0,.06,0,.1c-3.92,3.31-8.22,5.97-13.32,9.42-5.15,3.48-10.83,7.54-17.52,13.69-.8.88-1.19,1.32-1.98,2.2,3.63-.86,7.25-2.15,10.6-4.04.4-.2,1.03-.11,1.31.35.21.36.12.95-.37,1.15-4.23,2.48-8.9,3.9-13.59,4.76-10.6,13.46-24.5,30.87-18.38,49.24.15.46.04.96-.38,1.11-.07.11-.16.12-.24.13-.34.04-.63-.21-.85-.56-6.58-18.47,6.5-35.68,17.12-49.45-7.93,1.01-15.58.59-20.14.09-9.31,13.23-18.02,26.69-25.09,41.28-.98,2.24-1.46,3.37-2.4,5.62,0,0-.09.02-.07.11-.06.11-.28.36-.62.44-.1.02-.16.04-.26.06-.3-.13-.58-.31-.69-.62-.12-.33-.3-.64,2.54-6.55,6.37-14.5,13.58-28.69,21.82-42.22.16-.31.54-.46.95-.42,0,0,1.14.23,2.97.39,9.36-12.41,19.77-24.87,32.19-34.38-15.11,3.44-45.57,7.71-53.33,24.34-.31,1.8.87,2.56.89,2.65.45.21.56.83.21,1.22-.3.35-.86.44-1.31.23-.12-.08-2.15-1.45-1.71-4.25C29.7,8.36,65.88,3.4,81.77.14c.43-.11.87.08,1.1.45.23.38.02.86-.3,1.15-13.76,9.11-24.46,22.73-34.58,35.48,4.97.47,12.83.83,20.68-.52,4.64-5.26,9.7-10.24,14.43-14.74.32-.31.48-.47.81-.78,6.11-5.77,15.93-17.13,24.88-17.82.52.41,1.36,1.17-4.35,7.38ZM44.66,38.69c-.61-.11-1.12-.14-1.53-.19-3.42,5.69-5.06,8.56-8.17,14.32,1.52-2.37,2.3-3.55,3.88-5.91,1.77-2.67,3.77-5.46,5.82-8.22ZM106.44,5.47c-2.3,1.25-8.05,4.84-19.96,15.87,1.39-.97,2.09-1.45,3.49-2.41,5.17-3.55,9.31-6.14,13.02-9.37,1.32-1.39,2.65-2.97,3.45-4.08Z"/>
      <path d="M61.78,65.93c-.47-.15-.82-.62-.93-1.16-.29-1.43,1.64-4.19,5.56-7.06,5.69-4.24,10.03-3.92,11.51-1.97.2.37.41.84.42,1.23.37-.17.55-.25.92-.42.46-.21.82-.27,1.13.25.43.73-.24,1.15-.52,1.26-5.2,3.32-6.19,4.75-6.44,5.24.18,0,.37.08.74.06,6.35.25,21.03-4.32,22.71-5.06.47-.09.93.11,1.01.59.08.48-.11.86-.48,1.04-2.24,1.01-16.65,5.39-23.24,5.15-1.37-.03-2.13-.46-2.36-1.31-.11-.38-.05-.86.29-1.45-3.5,1.73-7.12,3.44-9.21,3.61-.46.04-.82.07-1.1,0ZM76.24,58.2c.44-.5.61-.98.31-1.45-.69-.93-3.98-1.57-9.21,2.33-3.63,2.74-4.66,4.57-4.88,5.26,1.38-.02,5.58-1.68,13.77-6.14Z"/>
      <path d="M94.33,62.75c-.4-1.16.2-2.67,1.7-3.8,6.47-4.97,10.91-5.22,12.73-3.89.91.52,1.24,1.4,1,2.35-.12.47-.6.73-1.06.61-.46-.12-.76-.59-.6-.99.07-.17.11-.38-.25-.59-1-.72-4.64-.92-10.91,3.85-.84.75-1.15,1.54-1.04,1.89.14.46.92.76,2,.8,3.8.12,15.69-1.86,21.61-3.58.47-.06.87.24.97.66.09.36-.07.86-.55,1.01-6.08,1.69-17.78,3.72-21.98,3.63-.04,0-.05,0-.09,0-2.55-.05-3.32-1.31-3.54-1.96Z"/>
      <path d="M158.96,66.64c-9.7,1.16-17.49,1.67-18.68,1.59-.29,0-.44,0-.74-.01-.63-.09-1.49-.44-1.68-1.2-.26-1.08.66-2.23,3.9-4.45,1.04-.71,1.5-1.22,1.73-1.48-.46-.07-1.49-.13-3.33.18-4.46.9-11.31,3.94-13.25,4.89-.2.17-.4.34-.59.42-.39.25-.92.05-1.16-.31-.21-.31-.1-.87.21-1.13,3.66-2.51,7.02-5.46,6.93-6.25-.03-.04-.05-.06-.08-.11-2.39-1.25-12.07,3.43-17.43,6.88-.1.09-.28.08-.46.06-.27-.02-.45-.13-.62-.33-.25-.3-.22-.88.17-1.14,3.63-3.24,5.48-4.83,9.28-7.97.31-.26.87-.21,1.12.11.34.42.29.89-.12,1.24-1.22,1-1.83,1.5-3.03,2.5,4.38-2.11,9.62-4.03,11.84-2.89.62.36.93.89.95,1.46.05,1.06-.94,2.29-2.22,3.58,2.64-1.03,5.74-2.05,8.22-2.58,2.03-.44,4.69-.64,5.27.79.48,1.2-1.06,2.54-2.52,3.47-2.09,1.42-2.84,2.18-3.08,2.54.33,0,.5.01.83.02,1.1.07,8.94-.43,18.38-1.56.48,0,.85.32.89.76.04.46-.28.92-.75.92Z"/>
      <path d="M193.62,75.55c-6.35.31-18.29-.28-22.38-1.28-.07-.02-.11-.03-.18-.04-1.16-.28-1.56-.96-1.7-1.59-.23-1.03.59-2.51,2.26-4.27-3.87,1.33-9.42,3.02-13.71,3.03-.47,0-1.02-.01-1.47-.1-.81-.16-1.49-.48-1.72-1.21-.32-1.23.55-2.53,3.69-4.92.35-.32.81-.23,1.11.13.31.35.19.92-.16,1.23-2.46,1.84-2.97,2.62-3.04,2.99.18.04.61.22,1.66.13,2.71.06,5.98-.71,9.03-1.58-.52-.22-.91-.6-1.19-1.05-.35-.57-.32-1.37,0-2.15.8-1.96,3.79-1.42,8.28-.32.74.14,1.11.22,1.86.36.37.09.57.44.68.76-.05.18-.07.28-.12.46-.02.09-.07.28-.19.35-.05.19-.16.25-.28.32,0,0-.09-.02-.11.07-3.46,2.57-5.1,4.74-4.99,5.45.07.11.25.15.6.24,3.7.95,15.81,1.62,22.01,1.25.39.02.8.43.81.85,0,.37-.26.82-.76.86ZM167.25,66.17c.09.21.39.38.76.47,1.27.29,3.27-.03,5.06-.67-2.49-.51-5.53-1.1-5.76-.47-.04.19-.12.51-.06.67Z"/>
    </g>
  </g>
</svg>